<svg data-v-423bf9ae="" xmlns="http://www.w3.org/2000/svg" viewBox="0 0 176.58671820512407 60" class="font"><!----><!----><!----><g data-v-423bf9ae="" id="59c94ca9-9cf4-4ebe-8dd3-251bcac0101b" fill="#7ecdb6" transform="matrix(5.176876549617888,0,0,5.176876549617888,1.7083679864104937,-11.130284598546723)"><path d="M0.79 13.52L0.79 13.52L0.79 13.52Q0.49 13.73 0.33 13.73L0.33 13.73L0.33 13.73Q0.17 13.73 0.06 13.69L0.06 13.69L0.06 13.69Q-0.04 13.64-0.13 13.58L-0.13 13.58L-0.13 13.58Q-0.33 13.41-0.33 13.27L-0.33 13.27L-0.33 13.27Q-0.33 13.13-0.18 13.01L-0.18 13.01L-0.18 13.01Q-0.18 13.01 0.23 12.67L0.23 12.67L0.23 12.67Q1.35 11.75 2.08 10.67L2.08 10.67L2.08 10.67Q1.49 9.00 1.54 7.90L1.54 7.90L1.54 7.90Q1.57 7.35 2.01 6.95L2.01 6.95L2.01 6.95Q2.42 6.60 2.88 6.60L2.88 6.60L2.88 6.60Q3.02 6.60 3.06 6.69L3.06 6.69L3.06 6.69Q3.10 6.79 3.10 6.97L3.10 6.97L3.10 6.97Q3.10 7.15 3.09 7.35L3.09 7.35L3.09 7.35Q3.08 7.55 3.09 7.78L3.09 7.78L3.09 7.78Q3.10 8.00 3.12 8.26L3.12 8.26L3.12 8.26Q3.19 8.96 3.25 9.34L3.25 9.34L3.47 8.97L3.47 8.97Q4.25 7.73 5.29 7.01L5.29 7.01L5.29 7.01Q5.88 6.60 6.30 6.60L6.30 6.60L6.30 6.60Q6.69 6.60 6.90 6.71L6.90 6.71L6.90 6.71Q7.29 6.91 7.16 7.12L7.16 7.12L7.16 7.12Q7.14 7.16 7.08 7.18L7.08 7.18L6.91 7.26L6.91 7.26Q5.83 7.73 4.16 9.57L4.16 9.57L4.16 9.57Q3.81 9.95 3.55 10.30L3.55 10.30L3.79 11.10L3.79 11.10Q4.23 12.54 4.84 12.54L4.84 12.54L4.84 12.54Q5.11 12.54 5.28 12.46L5.28 12.46L5.52 12.35L5.52 12.35Q5.60 12.31 5.67 12.31L5.67 12.31L5.67 12.31Q5.81 12.31 5.81 12.46L5.81 12.46L5.81 12.46Q5.81 13.06 5.20 13.47L5.20 13.47L5.20 13.47Q4.79 13.74 4.27 13.74L4.27 13.74L4.27 13.74Q3.26 13.74 2.45 11.67L2.45 11.67L2.45 11.67Q1.59 12.93 0.79 13.52ZM7.33 13.52L7.33 13.52L7.33 13.52Q7.03 13.73 6.87 13.73L6.87 13.73L6.87 13.73Q6.71 13.73 6.61 13.69L6.61 13.69L6.61 13.69Q6.50 13.64 6.41 13.58L6.41 13.58L6.41 13.58Q6.21 13.41 6.21 13.27L6.21 13.27L6.21 13.27Q6.21 13.13 6.36 13.01L6.36 13.01L6.36 13.01Q6.36 13.01 6.77 12.67L6.77 12.67L6.77 12.67Q7.90 11.75 8.63 10.67L8.63 10.67L8.63 10.67Q8.03 9.00 8.08 7.90L8.08 7.90L8.08 7.90Q8.11 7.35 8.55 6.95L8.55 6.95L8.55 6.95Q8.96 6.60 9.43 6.60L9.43 6.60L9.43 6.60Q9.56 6.60 9.60 6.69L9.60 6.69L9.60 6.69Q9.65 6.79 9.65 6.97L9.65 6.97L9.65 6.97Q9.65 7.15 9.63 7.35L9.63 7.35L9.63 7.35Q9.62 7.55 9.63 7.78L9.63 7.78L9.63 7.78Q9.64 8.00 9.66 8.26L9.66 8.26L9.66 8.26Q9.73 8.96 9.79 9.34L9.79 9.34L10.01 8.97L10.01 8.97Q10.79 7.73 11.83 7.01L11.83 7.01L11.83 7.01Q12.42 6.60 12.84 6.60L12.84 6.60L12.84 6.60Q13.23 6.60 13.44 6.71L13.44 6.71L13.44 6.71Q13.84 6.91 13.71 7.12L13.71 7.12L13.71 7.12Q13.69 7.16 13.62 7.18L13.62 7.18L13.45 7.26L13.45 7.26Q12.37 7.73 10.70 9.57L10.70 9.57L10.70 9.57Q10.35 9.95 10.09 10.30L10.09 10.30L10.33 11.10L10.33 11.10Q10.77 12.54 11.38 12.54L11.38 12.54L11.38 12.54Q11.65 12.54 11.82 12.46L11.82 12.46L12.07 12.35L12.07 12.35Q12.14 12.31 12.21 12.31L12.21 12.31L12.21 12.31Q12.35 12.31 12.35 12.46L12.35 12.46L12.35 12.46Q12.35 13.06 11.74 13.47L11.74 13.47L11.74 13.47Q11.33 13.74 10.81 13.74L10.81 13.74L10.81 13.74Q9.80 13.74 8.99 11.67L8.99 11.67L8.99 11.67Q8.13 12.93 7.33 13.52ZM20.41 12.29L20.41 12.29L20.41 12.29Q20.55 12.29 20.55 12.44L20.55 12.44L20.55 12.44Q20.55 13.03 19.94 13.45L19.94 13.45L19.94 13.45Q19.54 13.74 19.18 13.74L19.18 13.74L19.18 13.74Q18.82 13.74 18.61 13.66L18.61 13.66L18.61 13.66Q18.40 13.58 18.22 13.40L18.22 13.40L18.22 13.40Q17.84 12.99 17.84 12.27L17.84 12.27L17.84 12.27Q17.84 12.13 17.90 11.81L17.90 11.81L17.90 11.81Q17.34 12.67 16.95 13.02L16.95 13.02L16.95 13.02Q16.15 13.74 15.38 13.74L15.38 13.74L15.38 13.74Q14.17 13.74 13.79 12.65L13.79 12.65L13.79 12.65Q13.66 12.24 13.66 11.63L13.66 11.63L13.66 11.63Q13.66 11.03 13.84 10.40L13.84 10.40L13.84 10.40Q14.03 9.78 14.35 9.22L14.35 9.22L14.35 9.22Q14.66 8.66 15.08 8.18L15.08 8.18L15.08 8.18Q15.50 7.70 15.97 7.34L15.97 7.34L15.97 7.34Q16.97 6.60 17.77 6.60L17.77 6.60L17.77 6.60Q18.58 6.60 19.07 7.25L19.07 7.25L19.07 7.25Q20.25 3.18 20.86 2.45L20.86 2.45L20.86 2.45Q21.11 2.15 21.39 2.15L21.39 2.15L21.39 2.15Q21.85 2.15 22.09 2.41L22.09 2.41L22.09 2.41Q22.17 2.50 22.17 2.59L22.17 2.59L22.17 2.59Q22.17 2.68 22.06 2.92L22.06 2.92L22.06 2.92Q21.95 3.16 21.74 3.69L21.74 3.69L21.74 3.69Q21.13 5.30 20.88 6.04L20.88 6.04L20.88 6.04Q20.25 7.95 20.04 8.67L20.04 8.67L19.66 9.93L19.66 9.93Q19.17 11.62 19.17 12.08L19.17 12.08L19.17 12.08Q19.17 12.54 19.51 12.54L19.51 12.54L19.51 12.54Q19.82 12.54 20.00 12.46L20.00 12.46L20.26 12.33L20.26 12.33Q20.34 12.29 20.41 12.29ZM15.71 12.71L15.71 12.71L15.71 12.71Q16.41 12.71 17.32 11.34L17.32 11.34L17.32 11.34Q18.27 9.92 18.65 8.24L18.65 8.24L18.65 8.24Q18.62 7.78 18.26 7.56L18.26 7.56L18.26 7.56Q18.14 7.49 17.89 7.49L17.89 7.49L17.89 7.49Q17.64 7.49 17.31 7.67L17.31 7.67L17.31 7.67Q16.97 7.85 16.66 8.16L16.66 8.16L16.66 8.16Q16.35 8.46 16.08 8.88L16.08 8.88L16.08 8.88Q15.81 9.29 15.61 9.75L15.61 9.75L15.61 9.75Q15.18 10.77 15.18 11.74L15.18 11.74L15.18 11.74Q15.18 12.71 15.71 12.71ZM21.32 11.31L21.32 11.31L21.32 11.31Q21.33 10.72 21.51 10.13L21.51 10.13L21.51 10.13Q21.68 9.54 21.97 9.01L21.97 9.01L21.97 9.01Q22.26 8.48 22.66 8.04L22.66 8.04L22.66 8.04Q23.06 7.59 23.54 7.27L23.54 7.27L23.54 7.27Q24.52 6.60 25.61 6.60L25.61 6.60L25.61 6.60Q26.73 6.60 27.13 7.49L27.13 7.49L27.13 7.49Q27.28 7.81 27.27 8.22L27.27 8.22L27.27 8.22Q27.25 8.63 27.13 8.97L27.13 8.97L27.13 8.97Q27.01 9.30 26.82 9.57L26.82 9.57L26.82 9.57Q26.41 10.17 25.98 10.17L25.98 10.17L25.98 10.17Q25.51 10.17 25.29 9.91L25.29 9.91L25.29 9.91Q25.09 9.69 25.16 9.39L25.16 9.39L25.16 9.39Q25.18 9.30 25.29 9.23L25.29 9.23L25.29 9.23Q25.39 9.15 25.55 9.00L25.55 9.00L25.55 9.00Q25.99 8.53 26.01 7.91L26.01 7.91L26.01 7.91Q26.02 7.49 25.49 7.49L25.49 7.49L25.49 7.49Q24.92 7.49 24.29 8.13L24.29 8.13L24.29 8.13Q23.37 9.06 23.00 10.53L23.00 10.53L23.00 10.53Q22.67 11.80 23.12 12.39L23.12 12.39L23.12 12.39Q23.39 12.73 23.84 12.73L23.84 12.73L23.84 12.73Q24.62 12.73 25.33 12.18L25.33 12.18L25.33 12.18Q25.55 12.01 25.69 11.83L25.69 11.83L25.69 11.83Q25.83 11.66 25.94 11.66L25.94 11.66L25.94 11.66Q26.06 11.66 26.14 11.77L26.14 11.77L26.14 11.77Q26.22 11.88 26.22 12.06L26.22 12.06L26.22 12.06Q26.22 12.46 25.85 12.85L25.85 12.85L25.85 12.85Q24.92 13.74 23.62 13.74L23.62 13.74L23.62 13.74Q22.50 13.74 21.90 13.10L21.90 13.10L21.90 13.10Q21.29 12.48 21.32 11.31ZM27.84 11.31L27.84 11.31L27.84 11.31Q27.85 10.72 28.02 10.13L28.02 10.13L28.02 10.13Q28.20 9.54 28.49 9.01L28.49 9.01L28.49 9.01Q28.78 8.48 29.18 8.04L29.18 8.04L29.18 8.04Q29.58 7.59 30.05 7.27L30.05 7.27L30.05 7.27Q31.04 6.60 32.12 6.60L32.12 6.60L32.12 6.60Q33.24 6.60 33.65 7.49L33.65 7.49L33.65 7.49Q33.79 7.81 33.78 8.22L33.78 8.22L33.78 8.22Q33.77 8.63 33.65 8.97L33.65 8.97L33.65 8.97Q33.52 9.30 33.34 9.57L33.34 9.57L33.34 9.57Q32.92 10.17 32.50 10.17L32.50 10.17L32.50 10.17Q32.03 10.17 31.80 9.91L31.80 9.91L31.80 9.91Q31.60 9.69 31.68 9.39L31.68 9.39L31.68 9.39Q31.70 9.30 31.80 9.23L31.80 9.23L31.80 9.23Q31.90 9.15 32.06 9.00L32.06 9.00L32.06 9.00Q32.50 8.53 32.53 7.91L32.53 7.91L32.53 7.91Q32.54 7.49 32.01 7.49L32.01 7.49L32.01 7.49Q31.43 7.49 30.80 8.13L30.80 8.13L30.80 8.13Q29.89 9.06 29.51 10.53L29.51 10.53L29.51 10.53Q29.18 11.80 29.63 12.39L29.63 12.39L29.63 12.39Q29.90 12.73 30.36 12.73L30.36 12.73L30.36 12.73Q31.13 12.73 31.85 12.18L31.85 12.18L31.85 12.18Q32.07 12.01 32.20 11.83L32.20 11.83L32.20 11.83Q32.34 11.66 32.46 11.66L32.46 11.66L32.46 11.66Q32.57 11.66 32.65 11.77L32.65 11.77L32.65 11.77Q32.73 11.88 32.73 12.06L32.73 12.06L32.73 12.06Q32.73 12.46 32.37 12.85L32.37 12.85L32.37 12.85Q31.44 13.74 30.13 13.74L30.13 13.74L30.13 13.74Q29.02 13.74 28.41 13.10L28.41 13.10L28.41 13.10Q27.81 12.48 27.84 11.31Z"></path></g><!----><!----></svg>