<svg width="399" height="399" xmlns="http://www.w3.org/2000/svg" class="iconLeft">
 <!---->

 <!---->
 <!---->
 <!---->
 <!---->
 <g>
  <title>background</title>
  <rect fill="none" id="canvas_background" height="401" width="401" y="-1" x="-1"/>
 </g>
 <g>
  <title>Layer 1</title>
  <g fill="#7DE38D" transform="matrix(1.0978957203446895,0,0,1.0978957203446895,-2.3941367619488574,-9.881062043266013) " id="33a8b9c3-7cdd-4d7f-b764-d2c57b2f4a11">
   <switch transform="translate(0.9108332991600037,0.9108332991600037) ">
    <g stroke="null" id="svg_2">
     <path stroke="null" id="svg_3" d="m332.977159,209.364012l-129.977666,151.059956c-10.989365,12.734706 -29.17866,12.734706 -40.546969,0l-130.35661,-150.620828c-3.789436,-4.391278 -6.820985,-8.782556 -9.852534,-13.612961l57.978376,0c4.926267,0 9.852534,-3.073894 12.884084,-7.9043l20.462956,-34.691095l53.809996,90.021195c3.031549,4.830406 7.578873,7.9043 12.884084,7.9043c4.926267,0 9.852534,-3.073894 12.884084,-7.9043l28.799716,-47.864928l47.367954,0c8.715704,0 15.536689,-7.9043 15.536689,-18.004239s-6.820985,-18.004239 -15.536689,-18.004239l-56.083658,0c-4.926267,0 -9.852534,3.073894 -12.884084,7.9043l-20.462956,34.251967l-53.809996,-89.582067c-3.031549,-4.830406 -7.578873,-7.9043 -12.884084,-7.9043c-4.926267,0 -9.852534,3.073894 -12.884084,7.9043l-28.799716,47.864928l-64.799361,0c-10.231478,-39.960628 -1.894718,-84.751661 25.389223,-115.929734c39.410138,-45.669289 103.072668,-45.669289 142.482806,0l7.957816,9.221683l7.578873,-9.221683c39.410138,-45.669289 103.072668,-45.669289 142.482806,0c39.789082,45.669289 39.789082,119.442756 0.378944,165.112045z"/>
    </g>
   </switch>
  </g>
 </g>
</svg>